<svg width="3217" height="766" viewBox="0 0 3217 766" fill="none" xmlns="http://www.w3.org/2000/svg">
<g filter="url(#filter0_f_1019_8976)">
<path d="M434.836 114.434C497.667 88.0028 549.038 96.8076 577.728 149.68C606.417 202.551 623.875 238.121 682.332 273.201C741.774 308.872 748.469 360.852 720.62 404.738C685.278 460.43 694.539 481.952 692.301 541.541C690.064 601.129 651.284 635.381 587.697 637.833C524.11 640.284 492.136 625.62 434.836 651.536C377.535 677.453 321.756 670.191 291.944 616.291C262.131 562.391 229.862 568.529 162.944 536.276C96.0272 504.022 81.1435 455.619 124.657 404.738C168.17 353.858 195.748 335.866 187.339 273.201C178.931 210.536 223.122 179.598 291.944 176.909C360.765 174.22 372.004 140.866 434.836 114.434Z" fill="url(#paint0_radial_1019_8976)"/>
<path d="M435.029 114.896C466.39 101.703 494.83 97.3306 518.975 102.806C543.099 108.276 563.003 123.592 577.288 149.918C605.977 202.789 623.489 238.473 682.074 273.63C711.71 291.414 728.141 313.227 733.725 336.008C739.309 358.79 734.065 382.618 720.197 404.471C702.496 432.365 695.943 451.739 693.55 471.618C692.355 481.546 692.199 491.59 692.2 502.858C692.202 514.132 692.361 526.637 691.802 541.521C690.687 571.206 680.476 594.531 662.669 610.743C644.856 626.961 619.389 636.11 587.678 637.333C571.802 637.945 557.898 637.489 545.069 636.864C532.247 636.24 520.478 635.445 508.911 635.385C485.75 635.264 463.357 638.088 434.63 651.081C406.046 664.009 377.887 668.64 353.187 663.355C328.503 658.074 307.222 642.88 292.381 616.049C277.42 588.999 261.816 576.987 241.566 567.711C231.465 563.084 220.2 559.134 207.313 554.337C194.418 549.537 179.87 543.879 163.161 535.825C129.762 519.727 109.458 499.649 102.869 477.351C96.2871 455.076 103.347 430.426 125.037 405.063C135.919 392.339 145.776 381.704 154.367 371.861C162.945 362.035 170.232 353.031 175.896 343.647C187.246 324.846 192.052 304.564 187.835 273.135C183.65 241.944 192.554 218.722 211.005 202.944C229.484 187.143 257.609 178.75 291.963 177.408C326.476 176.06 346.575 167.015 365.899 155C385.216 142.99 403.662 128.091 435.029 114.896Z" stroke="#007FFF"/>
</g>
<g filter="url(#filter1_f_1019_8976)">
<circle cx="436.768" cy="409.753" r="206.575" stroke="url(#paint1_linear_1019_8976)" stroke-width="3"/>
</g>
<g filter="url(#filter2_f_1019_8976)">
<circle cx="436.768" cy="409.753" r="206.575" stroke="url(#paint2_linear_1019_8976)" stroke-width="3"/>
</g>
<g filter="url(#filter3_f_1019_8976)">
<circle cx="431.061" cy="404.045" r="213.117" fill="#1E1E1E"/>
</g>
<path d="M815.424 159.607H949.91C969.495 159.607 986.469 161.732 1000.83 165.981C1015.19 170.231 1027.11 176.387 1036.57 184.45C1046.04 192.405 1053.06 202.157 1057.63 213.707C1062.31 225.257 1064.65 238.278 1064.65 252.77C1064.65 266.39 1062.36 278.975 1057.79 290.525C1053.22 302.075 1046.2 312.1 1036.74 320.599C1027.38 328.989 1015.52 335.581 1001.16 340.375C986.795 345.061 969.821 347.404 950.236 347.404L867.162 347.24V415.069H815.424V159.607ZM951.215 302.457C961.008 302.457 969.549 301.312 976.84 299.024C984.238 296.627 990.386 293.304 995.282 289.054C1000.29 284.696 1003.99 279.465 1006.38 273.364C1008.88 267.153 1010.13 260.288 1010.13 252.77C1010.13 237.624 1005.18 225.856 995.282 217.466C985.49 208.967 970.801 204.717 951.215 204.717H867.162V302.457H951.215Z" fill="white"/>
<path d="M1154.71 159.607H1284.46C1304.05 159.607 1321.02 161.677 1335.38 165.818C1349.74 169.849 1361.66 175.733 1371.12 183.47C1380.59 191.206 1387.61 200.631 1392.18 211.745C1396.86 222.86 1399.2 235.445 1399.2 249.501C1399.2 258.981 1398.05 268.024 1395.77 276.632C1393.48 285.132 1389.95 292.977 1385.16 300.168C1380.48 307.36 1374.55 313.789 1367.37 319.455C1360.19 325.012 1351.76 329.643 1342.07 333.347L1397.57 415.069H1334.24L1286.26 342.5H1284.79L1206.44 342.337V415.069H1154.71V159.607ZM1285.77 297.553C1295.56 297.553 1304.1 296.409 1311.39 294.121C1318.79 291.833 1324.94 288.618 1329.83 284.478C1334.84 280.337 1338.54 275.325 1340.93 269.441C1343.43 263.448 1344.68 256.801 1344.68 249.501C1344.68 235.227 1339.79 224.222 1330 216.485C1320.2 208.64 1305.46 204.717 1285.77 204.717H1206.44V297.553H1285.77Z" fill="white"/>
<path d="M1580.98 159.607H1635.82L1759.21 415.069H1704.86L1684.46 372.083H1535.45L1515.7 415.069H1461.18L1580.98 159.607ZM1664.06 329.425L1608.89 213.38L1555.19 329.425H1664.06Z" fill="white"/>
<path d="M1814.83 284.968C1814.83 266.989 1818.2 250.209 1824.95 234.627C1831.7 218.937 1841.54 205.317 1854.49 193.767C1867.44 182.217 1883.32 173.118 1902.15 166.472C1921.08 159.825 1942.73 156.501 1967.11 156.501C1975.92 156.501 1984.73 156.992 1993.55 157.972C2002.47 158.844 2011.23 160.261 2019.82 162.222C2028.53 164.183 2036.96 166.689 2045.12 169.74C2053.39 172.682 2061.22 176.224 2068.62 180.364L2044.79 219.591C2040.33 216.976 2035.27 214.633 2029.62 212.563C2023.96 210.383 2017.86 208.585 2011.34 207.169C2004.92 205.643 1998.23 204.499 1991.26 203.737C1984.41 202.974 1977.5 202.593 1970.53 202.593C1954.43 202.593 1940.07 204.663 1927.45 208.803C1914.82 212.835 1904.16 218.556 1895.46 225.965C1886.75 233.265 1880.11 242.037 1875.54 252.279C1870.97 262.522 1868.69 273.745 1868.69 285.949C1868.69 298.588 1871.08 310.193 1875.87 320.762C1880.66 331.332 1887.46 340.43 1896.27 348.057C1905.09 355.685 1915.75 361.678 1928.26 366.036C1940.77 370.286 1954.76 372.41 1970.21 372.41C1982.5 372.41 1993.76 371.048 2003.99 368.324C2014.22 365.491 2023.14 361.514 2030.76 356.393C2038.38 351.272 2044.58 345.115 2049.36 337.924C2054.15 330.623 2057.31 322.451 2058.83 313.407H1969.72V270.748H2105.35V270.912L2105.51 270.748C2108.23 283.824 2109.05 296.573 2107.96 308.994C2106.98 321.307 2104.15 332.966 2099.47 343.971C2094.9 354.867 2088.59 364.892 2080.54 374.045C2072.49 383.198 2062.86 391.097 2051.65 397.744C2040.44 404.282 2027.71 409.403 2013.46 413.108C1999.2 416.704 1983.59 418.501 1966.62 418.501C1942.9 418.501 1921.62 415.015 1902.8 408.041C1884.09 401.067 1868.2 391.533 1855.14 379.438C1842.09 367.344 1832.08 353.179 1825.11 336.943C1818.26 320.708 1814.83 303.383 1814.83 284.968Z" fill="white"/>
<path d="M2603.18 160.501H2658L2781.34 415.501H2727.01L2706.62 372.594H2557.66L2537.92 415.501H2483.42L2603.18 160.501ZM2686.22 330.012L2631.08 214.177L2577.4 330.012H2686.22Z" fill="white"/>
<path d="M2854.07 160.501H2905.79L3064.7 243.707V160.501H3116.42V415.501H3064.7V298.524L2905.79 215.809V415.501H2854.07V160.501Z" fill="white"/>
<path d="M2318.07 229.977C2340 234.134 2354.46 254.895 2350.4 276.336C2346.34 297.778 2325.27 311.804 2303.34 307.647C2281.41 303.491 2266.94 282.73 2271.01 261.288C2275.07 239.846 2296.14 225.821 2318.07 229.977Z" stroke="#F0F0F0" stroke-width="0.6"/>
<path d="M2433.38 162.471C2441.61 163.999 2449.24 165.517 2455.21 166.828C2461.2 168.142 2465.49 169.243 2467.08 169.933L2467.09 169.935C2467.68 170.181 2468.13 170.394 2468.41 170.633C2468.54 170.748 2468.62 170.858 2468.66 170.965C2468.7 171.07 2468.7 171.196 2468.66 171.362C2468.57 171.713 2468.25 172.209 2467.55 172.918C2466.86 173.619 2465.83 174.497 2464.37 175.617C2460.01 178.979 2451.89 184.458 2437.86 193.749L2421.77 204.374C2397.7 220.329 2370.01 238.298 2355.58 247.541L2350.26 250.937L2328.84 264.56L2323.41 261.647L2323.41 261.647C2321.19 260.434 2319.64 259.768 2318.43 259.633C2317.82 259.564 2317.29 259.631 2316.8 259.837C2316.32 260.041 2315.9 260.373 2315.5 260.804L2315.5 260.805C2315.27 261.047 2315.08 261.201 2314.93 261.284C2314.78 261.366 2314.7 261.36 2314.67 261.348C2314.63 261.335 2314.56 261.291 2314.48 261.131C2314.4 260.971 2314.32 260.729 2314.27 260.389C2314.06 259.015 2314.2 256.378 2314.72 252.362C2315.75 244.351 2318.28 231.001 2322.38 211.679L2322.39 211.678C2326.81 190.648 2329.66 178.388 2332.55 170.675C2333.99 166.824 2335.43 164.123 2337.07 162.036C2338.71 159.952 2340.56 158.467 2342.82 157.062L2342.83 157.057C2350.36 152.053 2359.82 151.547 2385.05 154.743L2385.05 154.743C2398 156.317 2416.9 159.415 2433.38 162.471Z" fill="white" stroke="white" stroke-width="0.6"/>
<path d="M2166.38 143.686C2175.79 151.025 2210.05 179.593 2241.73 206.29C2257.58 219.64 2272.77 232.521 2283.89 242.041C2289.45 246.801 2293.99 250.72 2297.08 253.438C2298.63 254.798 2299.81 255.854 2300.57 256.565C2300.78 256.758 2300.96 256.925 2301.1 257.064C2300.75 257.089 2300.44 257.189 2300.22 257.375C2300.02 257.538 2299.88 257.761 2299.85 258.029C2299.82 258.282 2299.89 258.55 2300.03 258.82C2300.16 259.184 2300.08 259.639 2299.83 260.058C2299.58 260.476 2299.17 260.819 2298.69 260.955L2298.66 260.963L2298.63 260.978C2297.55 261.553 2296.72 262.929 2296.84 264.311L2296.85 264.324L2296.85 264.335C2296.85 264.361 2296.85 264.447 2296.67 264.604C2296.48 264.757 2296.17 264.928 2295.71 265.11C2294.79 265.472 2293.37 265.844 2291.44 266.225C2288.06 266.89 2283.16 267.574 2276.77 268.28L2273.94 268.583C2261.05 269.845 2240.25 272.073 2227.55 273.368L2227.55 273.367C2214.9 274.677 2208.32 275.313 2203.53 274.998C2198.78 274.684 2195.82 273.43 2190.42 270.909L2190.41 270.908C2185.14 268.517 2181.15 264.801 2176.78 258.356C2175.23 256.078 2174.09 254.344 2173.18 252.441C2172.27 250.542 2171.59 248.465 2171.01 245.507C2169.98 240.317 2169.24 232.449 2168.02 218.131L2167.46 211.589C2165.88 192.119 2164.03 169.182 2162.98 158.531L2162.78 156.57L2161.23 139.837L2166.38 143.686Z" fill="white" stroke="white" stroke-width="0.6"/>
<path d="M2322.53 281.111C2322.57 281.133 2322.61 281.17 2322.67 281.227C2322.78 281.339 2322.93 281.509 2323.11 281.737C2323.48 282.192 2323.96 282.856 2324.55 283.711C2325.72 285.419 2327.3 287.868 2329.17 290.878C2332.92 296.897 2337.86 305.145 2343.08 314.156C2354.76 334.626 2361 346.878 2362.89 356.041C2363.82 360.608 2363.68 364.397 2362.58 368.049C2361.48 371.708 2359.42 375.249 2356.5 379.314L2356.5 379.317C2354.36 382.385 2351.32 385.212 2344.01 389.967C2336.71 394.723 2325.18 401.391 2306.11 412.147L2306.1 412.147C2293.7 419.228 2282.35 425.583 2274.09 430.142C2269.96 432.422 2266.6 434.253 2264.27 435.501C2263.1 436.125 2262.19 436.602 2261.57 436.917C2261.4 437.002 2261.26 437.071 2261.13 437.131C2261.18 436.935 2261.24 436.687 2261.31 436.389C2261.51 435.557 2261.82 434.342 2262.22 432.788C2263.03 429.68 2264.21 425.221 2265.67 419.769C2268.59 408.864 2272.64 393.984 2277.08 377.988C2286.91 342.826 2293.32 319.18 2297.21 304.225L2297.21 304.224C2299.23 296.321 2301.79 287.475 2302.87 284.522L2302.87 284.515C2303.28 283.314 2303.61 282.414 2303.93 281.771C2304.25 281.119 2304.53 280.785 2304.79 280.646C2305.03 280.521 2305.31 280.523 2305.76 280.73C2306.21 280.94 2306.76 281.334 2307.48 281.91L2307.48 281.911C2308.7 282.936 2309.67 283.517 2310.54 283.608C2311.45 283.704 2312.18 283.262 2312.88 282.476L2312.88 282.477C2313.42 281.888 2313.84 281.577 2314.08 281.482L2314.08 281.484C2314.05 281.62 2314.06 281.759 2314.12 281.889C2314.18 282.017 2314.27 282.115 2314.38 282.188C2314.58 282.327 2314.87 282.391 2315.17 282.413C2315.78 282.457 2316.63 282.337 2317.57 282.068L2317.59 282.063L2317.61 282.056C2318.44 281.699 2319.44 281.413 2320.36 281.24C2321.27 281.068 2322.06 281.018 2322.52 281.099C2322.52 281.101 2322.53 281.106 2322.53 281.111Z" fill="white" stroke="white" stroke-width="0.6"/>
<path d="M2314.04 251.179C2323.7 253.011 2330.05 262.365 2328.21 272.072C2326.37 281.78 2317.04 288.161 2307.37 286.329C2297.71 284.497 2291.36 275.144 2293.2 265.436C2295.04 255.729 2304.37 249.346 2314.04 251.179Z" fill="white" stroke="white" stroke-width="0.6"/>
<path d="M833.174 513.099H847.374V612.499H833.174V513.099ZM943.594 593.897C943.594 599.198 943.689 602.937 943.878 605.115C944.162 607.292 944.636 609.28 945.298 611.079C941.89 612.499 938.34 613.209 934.648 613.209C932.85 613.209 931.619 612.167 930.956 610.085C930.388 607.907 930.104 603.884 930.104 598.015V559.959C930.104 553.9 929.016 549.593 926.838 547.037C924.756 544.386 921.253 543.061 916.33 543.061C909.041 543.061 901.468 546.611 893.61 553.711V612.499H880.12V560.669C880.12 547.605 879.552 539.511 878.416 536.387C882.866 534.683 886.368 533.831 888.924 533.831C892.048 533.831 893.61 536.576 893.61 542.067V543.487C898.154 539.795 902.414 537.144 906.39 535.535C910.461 533.831 914.768 532.979 919.312 532.979C927.454 532.979 933.512 535.203 937.488 539.653C941.559 544.007 943.594 550.681 943.594 559.675V593.897ZM1009.11 601.565C1009.86 601.943 1010.48 602.606 1010.95 603.553C1011.43 604.405 1011.66 605.399 1011.66 606.535C1011.66 608.428 1010.95 609.801 1009.53 610.653C1008.11 611.694 1006.12 612.499 1003.57 613.067C1001.11 613.635 998.409 613.919 995.474 613.919C989.132 613.919 984.067 612.215 980.28 608.807C976.494 605.304 974.6 600.665 974.6 594.891V543.913H960.826V534.399H974.6V513.099H988.09V534.399H1006.69V543.913H988.09V593.045C988.09 596.831 988.848 599.624 990.362 601.423C991.877 603.127 994.196 603.979 997.32 603.979C1001.11 603.979 1005.04 603.174 1009.11 601.565ZM1092.57 568.053C1092.57 569.946 1092.43 572.407 1092.15 575.437H1037.62C1038 584.43 1040.08 591.435 1043.87 596.453C1047.65 601.375 1052.86 603.837 1059.49 603.837C1063.94 603.837 1067.63 602.937 1070.56 601.139C1073.59 599.34 1076.53 596.216 1079.37 591.767C1080.12 590.725 1081.17 590.205 1082.49 590.205C1084.67 590.205 1087.51 591.483 1091.01 594.039C1088.55 600.287 1084.57 605.162 1079.08 608.665C1073.59 612.167 1067.06 613.919 1059.49 613.919C1052.2 613.919 1045.85 612.309 1040.46 609.091C1035.16 605.777 1031.09 601.091 1028.25 595.033C1025.41 588.879 1023.99 581.637 1023.99 573.307C1023.99 560.716 1027.16 550.871 1033.5 543.771C1039.94 536.576 1048.79 532.979 1060.05 532.979C1070.37 532.979 1078.37 536.055 1084.05 542.209C1089.73 548.362 1092.57 556.977 1092.57 568.053ZM1078.8 566.349C1078.8 550.729 1072.41 542.919 1059.63 542.919C1053.29 542.919 1048.27 544.907 1044.58 548.883C1040.88 552.859 1038.66 558.681 1037.9 566.349H1078.8ZM1113.93 500.177H1127.27V612.499H1113.93V500.177ZM1155.61 500.177H1168.96V612.499H1155.61V500.177ZM1198.72 534.399H1212.07V612.499H1198.72V534.399ZM1204.69 520.057C1199.39 520.057 1196.73 517.406 1196.73 512.105V510.543C1196.73 505.241 1199.39 502.591 1204.69 502.591H1206.11C1211.41 502.591 1214.06 505.241 1214.06 510.543V512.105C1214.06 517.406 1211.41 520.057 1206.11 520.057H1204.69ZM1304.38 528.861C1306.56 528.861 1308.12 529.523 1309.07 530.849C1310.11 532.079 1310.63 534.162 1310.63 537.097C1310.63 538.517 1310.58 539.605 1310.49 540.363C1303.67 540.363 1298.89 541.262 1296.15 543.061C1299.74 547.51 1301.54 552.859 1301.54 559.107C1301.54 568.1 1298.8 574.916 1293.31 579.555C1287.82 584.099 1279.77 586.371 1269.17 586.371C1263.39 586.371 1259.23 586.797 1256.67 587.649C1254.21 588.406 1252.98 589.684 1252.98 591.483C1252.98 593.471 1254.54 594.938 1257.67 595.885C1260.88 596.737 1266.14 597.163 1273.43 597.163C1284.31 597.163 1292.69 599.009 1298.56 602.701C1304.53 606.393 1307.51 611.599 1307.51 618.321C1307.51 625.61 1304.29 631.29 1297.85 635.361C1291.41 639.431 1282.33 641.467 1270.59 641.467C1259.32 641.467 1250.66 639.668 1244.6 636.071C1238.64 632.568 1235.66 627.456 1235.66 620.735C1235.66 616.759 1237.03 613.398 1239.77 610.653C1242.61 607.813 1246.64 605.825 1251.84 604.689V604.263C1248.72 603.505 1246.21 602.133 1244.32 600.145C1242.52 598.062 1241.62 595.648 1241.62 592.903C1241.62 590.536 1242.57 588.406 1244.46 586.513C1246.45 584.619 1249.1 583.247 1252.41 582.395C1248.15 580.123 1244.79 577.141 1242.33 573.449C1239.96 569.662 1238.78 565.449 1238.78 560.811C1238.78 551.723 1241.57 544.812 1247.16 540.079C1252.84 535.345 1261.07 532.979 1271.87 532.979C1278.11 532.979 1283.65 534.257 1288.48 536.813C1290.75 534.351 1293.31 532.411 1296.15 530.991C1298.99 529.571 1301.73 528.861 1304.38 528.861ZM1270.02 576.573C1276.27 576.573 1280.76 575.247 1283.51 572.597C1286.25 569.946 1287.63 565.639 1287.63 559.675C1287.63 553.711 1286.21 549.356 1283.37 546.611C1280.62 543.865 1276.17 542.493 1270.02 542.493C1264.06 542.493 1259.65 543.913 1256.81 546.753C1253.97 549.498 1252.55 553.805 1252.55 559.675C1252.55 570.94 1258.38 576.573 1270.02 576.573ZM1271.16 607.387C1256.77 607.387 1249.57 611.315 1249.57 619.173C1249.57 627.409 1256.58 631.527 1270.59 631.527C1278.35 631.527 1284.22 630.485 1288.2 628.403C1292.17 626.32 1294.16 623.243 1294.16 619.173C1294.16 615.102 1292.31 612.12 1288.62 610.227C1285.02 608.333 1279.2 607.387 1271.16 607.387ZM1391.57 568.053C1391.57 569.946 1391.42 572.407 1391.14 575.437H1336.61C1336.99 584.43 1339.07 591.435 1342.86 596.453C1346.65 601.375 1351.85 603.837 1358.48 603.837C1362.93 603.837 1366.62 602.937 1369.56 601.139C1372.58 599.34 1375.52 596.216 1378.36 591.767C1379.12 590.725 1380.16 590.205 1381.48 590.205C1383.66 590.205 1386.5 591.483 1390 594.039C1387.54 600.287 1383.57 605.162 1378.08 608.665C1372.58 612.167 1366.05 613.919 1358.48 613.919C1351.19 613.919 1344.85 612.309 1339.45 609.091C1334.15 605.777 1330.08 601.091 1327.24 595.033C1324.4 588.879 1322.98 581.637 1322.98 573.307C1322.98 560.716 1326.15 550.871 1332.49 543.771C1338.93 536.576 1347.78 532.979 1359.05 532.979C1369.37 532.979 1377.37 536.055 1383.05 542.209C1388.73 548.362 1391.57 556.977 1391.57 568.053ZM1377.79 566.349C1377.79 550.729 1371.4 542.919 1358.62 542.919C1352.28 542.919 1347.26 544.907 1343.57 548.883C1339.88 552.859 1337.65 558.681 1336.9 566.349H1377.79ZM1475.4 593.897C1475.4 599.198 1475.49 602.937 1475.68 605.115C1475.97 607.292 1476.44 609.28 1477.1 611.079C1473.7 612.499 1470.15 613.209 1466.45 613.209C1464.66 613.209 1463.42 612.167 1462.76 610.085C1462.19 607.907 1461.91 603.884 1461.91 598.015V559.959C1461.91 553.9 1460.82 549.593 1458.64 547.037C1456.56 544.386 1453.06 543.061 1448.14 543.061C1440.85 543.061 1433.27 546.611 1425.42 553.711V612.499H1411.93V560.669C1411.93 547.605 1411.36 539.511 1410.22 536.387C1414.67 534.683 1418.17 533.831 1420.73 533.831C1423.85 533.831 1425.42 536.576 1425.42 542.067V543.487C1429.96 539.795 1434.22 537.144 1438.2 535.535C1442.27 533.831 1446.57 532.979 1451.12 532.979C1459.26 532.979 1465.32 535.203 1469.29 539.653C1473.36 544.007 1475.4 550.681 1475.4 559.675V593.897ZM1533.39 613.919C1521.46 613.919 1512.28 610.416 1505.84 603.411C1499.4 596.311 1496.18 586.181 1496.18 573.023C1496.18 564.881 1497.65 557.781 1500.58 551.723C1503.52 545.664 1507.73 541.025 1513.22 537.807C1518.71 534.588 1525.2 532.979 1532.68 532.979C1541.57 532.979 1548.86 535.251 1554.54 539.795C1560.32 544.244 1563.73 550.255 1564.77 557.829C1563.25 558.681 1561.64 559.391 1559.94 559.959C1558.24 560.432 1556.72 560.669 1555.4 560.669C1554.26 560.669 1553.36 560.337 1552.7 559.675C1552.13 559.012 1551.61 557.781 1551.14 555.983C1549.91 551.628 1547.73 548.362 1544.6 546.185C1541.48 543.913 1537.5 542.777 1532.68 542.777C1525.67 542.777 1520.09 545.522 1515.92 551.013C1511.85 556.409 1509.81 563.745 1509.81 573.023C1509.81 582.773 1511.9 590.347 1516.06 595.743C1520.23 601.139 1526 603.837 1533.39 603.837C1544.56 603.837 1551.99 598.062 1555.68 586.513C1558.24 586.513 1560.18 587.223 1561.5 588.643C1562.92 589.968 1563.63 591.861 1563.63 594.323C1563.63 597.731 1562.21 600.949 1559.37 603.979C1556.63 607.008 1552.93 609.422 1548.3 611.221C1543.66 613.019 1538.69 613.919 1533.39 613.919ZM1649.34 568.053C1649.34 569.946 1649.2 572.407 1648.91 575.437H1594.38C1594.76 584.43 1596.85 591.435 1600.63 596.453C1604.42 601.375 1609.63 603.837 1616.25 603.837C1620.7 603.837 1624.39 602.937 1627.33 601.139C1630.36 599.34 1633.29 596.216 1636.13 591.767C1636.89 590.725 1637.93 590.205 1639.26 590.205C1641.43 590.205 1644.27 591.483 1647.78 594.039C1645.32 600.287 1641.34 605.162 1635.85 608.665C1630.36 612.167 1623.83 613.919 1616.25 613.919C1608.96 613.919 1602.62 612.309 1597.22 609.091C1591.92 605.777 1587.85 601.091 1585.01 595.033C1582.17 588.879 1580.75 581.637 1580.75 573.307C1580.75 560.716 1583.92 550.871 1590.27 543.771C1596.7 536.576 1605.56 532.979 1616.82 532.979C1627.14 532.979 1635.14 536.055 1640.82 542.209C1646.5 548.362 1649.34 556.977 1649.34 568.053ZM1635.56 566.349C1635.56 550.729 1629.17 542.919 1616.39 542.919C1610.05 542.919 1605.03 544.907 1601.34 548.883C1597.65 552.859 1595.43 558.681 1594.67 566.349H1635.56ZM1724.06 523.749V555.983H1763.25V566.633H1724.06V612.499H1709.86V513.099H1769.36V523.749H1724.06ZM1816.97 613.919C1805.79 613.919 1797.32 610.463 1791.55 603.553C1785.77 596.642 1782.89 586.56 1782.89 573.307C1782.89 560.053 1785.77 550.019 1791.55 543.203C1797.32 536.387 1805.79 532.979 1816.97 532.979C1828.14 532.979 1836.61 536.387 1842.38 543.203C1848.25 550.019 1851.19 560.053 1851.19 573.307C1851.19 586.56 1848.25 596.642 1842.38 603.553C1836.61 610.463 1828.14 613.919 1816.97 613.919ZM1816.97 604.121C1824.07 604.121 1829.22 601.659 1832.44 596.737C1835.76 591.814 1837.41 584.004 1837.41 573.307C1837.41 562.704 1835.76 554.989 1832.44 550.161C1829.22 545.238 1824.07 542.777 1816.97 542.777C1809.87 542.777 1804.66 545.238 1801.35 550.161C1798.13 554.989 1796.52 562.704 1796.52 573.307C1796.52 584.004 1798.17 591.814 1801.49 596.737C1804.8 601.659 1809.96 604.121 1816.97 604.121ZM1904.96 533.405C1912.44 533.405 1916.18 536.197 1916.18 541.783C1916.18 544.055 1915.56 545.901 1914.33 547.321C1911.87 546.09 1908.65 545.475 1904.68 545.475C1898.43 545.475 1893.51 547.794 1889.91 552.433C1886.41 556.977 1884.65 563.272 1884.65 571.319V612.499H1871.16V534.399H1884.65V547.463C1886.74 543.203 1889.58 539.795 1893.17 537.239C1896.87 534.683 1900.8 533.405 1904.96 533.405ZM2034.88 601.849C2034.88 606.109 2034.36 608.949 2033.31 610.369C2032.37 611.789 2030.43 612.499 2027.49 612.499H1973.96V513.099H2034.31V523.749H1988.16V556.125H2027.49V566.917H1988.16V601.849H2034.88ZM2082.24 501.029C2086.88 501.029 2090.53 501.691 2093.18 503.017C2095.83 504.247 2097.15 505.999 2097.15 508.271C2097.15 509.312 2096.96 510.353 2096.59 511.395C2096.21 512.341 2095.78 512.957 2095.31 513.241C2092.18 511.821 2088.78 511.111 2085.08 511.111C2081.58 511.111 2078.88 512.247 2076.99 514.519C2075.19 516.791 2074.29 520.104 2074.29 524.459V534.399H2090.91V543.629H2074.29V612.499H2060.8V543.629H2047.17V534.399H2060.8V524.317C2060.8 517.027 2062.69 511.347 2066.48 507.277C2070.36 503.111 2075.62 501.029 2082.24 501.029ZM2134.89 501.029C2139.53 501.029 2143.17 501.691 2145.82 503.017C2148.47 504.247 2149.8 505.999 2149.8 508.271C2149.8 509.312 2149.61 510.353 2149.23 511.395C2148.85 512.341 2148.42 512.957 2147.95 513.241C2144.83 511.821 2141.42 511.111 2137.73 511.111C2134.22 511.111 2131.53 512.247 2129.63 514.519C2127.83 516.791 2126.93 520.104 2126.93 524.459V534.399H2143.55V543.629H2126.93V612.499H2113.44V543.629H2099.81V534.399H2113.44V524.317C2113.44 517.027 2115.34 511.347 2119.12 507.277C2123.01 503.111 2128.26 501.029 2134.89 501.029ZM2161.3 534.399H2174.65V612.499H2161.3V534.399ZM2167.26 520.057C2161.96 520.057 2159.31 517.406 2159.31 512.105V510.543C2159.31 505.241 2161.96 502.591 2167.26 502.591H2168.68C2173.98 502.591 2176.63 505.241 2176.63 510.543V512.105C2176.63 517.406 2173.98 520.057 2168.68 520.057H2167.26ZM2234.54 613.919C2222.62 613.919 2213.43 610.416 2207 603.411C2200.56 596.311 2197.34 586.181 2197.34 573.023C2197.34 564.881 2198.81 557.781 2201.74 551.723C2204.68 545.664 2208.89 541.025 2214.38 537.807C2219.87 534.588 2226.36 532.979 2233.83 532.979C2242.73 532.979 2250.02 535.251 2255.7 539.795C2261.48 544.244 2264.88 550.255 2265.93 557.829C2264.41 558.681 2262.8 559.391 2261.1 559.959C2259.39 560.432 2257.88 560.669 2256.55 560.669C2255.42 560.669 2254.52 560.337 2253.86 559.675C2253.29 559.012 2252.77 557.781 2252.29 555.983C2251.06 551.628 2248.89 548.362 2245.76 546.185C2242.64 543.913 2238.66 542.777 2233.83 542.777C2226.83 542.777 2221.24 545.522 2217.08 551.013C2213.01 556.409 2210.97 563.745 2210.97 573.023C2210.97 582.773 2213.05 590.347 2217.22 595.743C2221.39 601.139 2227.16 603.837 2234.54 603.837C2245.71 603.837 2253.15 598.062 2256.84 586.513C2259.39 586.513 2261.33 587.223 2262.66 588.643C2264.08 589.968 2264.79 591.861 2264.79 594.323C2264.79 597.731 2263.37 600.949 2260.53 603.979C2257.78 607.008 2254.09 609.422 2249.45 611.221C2244.82 613.019 2239.85 613.919 2234.54 613.919ZM2289.01 534.399H2302.36V612.499H2289.01V534.399ZM2294.98 520.057C2289.67 520.057 2287.02 517.406 2287.02 512.105V510.543C2287.02 505.241 2289.67 502.591 2294.98 502.591H2296.4C2301.7 502.591 2304.35 505.241 2304.35 510.543V512.105C2304.35 517.406 2301.7 520.057 2296.4 520.057H2294.98ZM2395.1 568.053C2395.1 569.946 2394.96 572.407 2394.67 575.437H2340.14C2340.52 584.43 2342.6 591.435 2346.39 596.453C2350.18 601.375 2355.38 603.837 2362.01 603.837C2366.46 603.837 2370.15 602.937 2373.09 601.139C2376.12 599.34 2379.05 596.216 2381.89 591.767C2382.65 590.725 2383.69 590.205 2385.02 590.205C2387.19 590.205 2390.03 591.483 2393.54 594.039C2391.07 600.287 2387.1 605.162 2381.61 608.665C2376.12 612.167 2369.58 613.919 2362.01 613.919C2354.72 613.919 2348.38 612.309 2342.98 609.091C2337.68 605.777 2333.61 601.091 2330.77 595.033C2327.93 588.879 2326.51 581.637 2326.51 573.307C2326.51 560.716 2329.68 550.871 2336.03 543.771C2342.46 536.576 2351.31 532.979 2362.58 532.979C2372.9 532.979 2380.9 536.055 2386.58 542.209C2392.26 548.362 2395.1 556.977 2395.1 568.053ZM2381.32 566.349C2381.32 550.729 2374.93 542.919 2362.15 542.919C2355.81 542.919 2350.79 544.907 2347.1 548.883C2343.41 552.859 2341.18 558.681 2340.43 566.349H2381.32ZM2478.93 593.897C2478.93 599.198 2479.03 602.937 2479.22 605.115C2479.5 607.292 2479.97 609.28 2480.64 611.079C2477.23 612.499 2473.68 613.209 2469.99 613.209C2468.19 613.209 2466.96 612.167 2466.29 610.085C2465.73 607.907 2465.44 603.884 2465.44 598.015V559.959C2465.44 553.9 2464.35 549.593 2462.18 547.037C2460.09 544.386 2456.59 543.061 2451.67 543.061C2444.38 543.061 2436.8 546.611 2428.95 553.711V612.499H2415.46V560.669C2415.46 547.605 2414.89 539.511 2413.75 536.387C2418.2 534.683 2421.71 533.831 2424.26 533.831C2427.39 533.831 2428.95 536.576 2428.95 542.067V543.487C2433.49 539.795 2437.75 537.144 2441.73 535.535C2445.8 533.831 2450.11 532.979 2454.65 532.979C2462.79 532.979 2468.85 535.203 2472.83 539.653C2476.9 544.007 2478.93 550.681 2478.93 559.675V593.897ZM2544.44 601.565C2545.2 601.943 2545.82 602.606 2546.29 603.553C2546.76 604.405 2547 605.399 2547 606.535C2547 608.428 2546.29 609.801 2544.87 610.653C2543.45 611.694 2541.46 612.499 2538.91 613.067C2536.44 613.635 2533.75 613.919 2530.81 613.919C2524.47 613.919 2519.4 612.215 2515.62 608.807C2511.83 605.304 2509.94 600.665 2509.94 594.891V543.913H2496.16V534.399H2509.94V513.099H2523.43V534.399H2542.03V543.913H2523.43V593.045C2523.43 596.831 2524.18 599.624 2525.7 601.423C2527.21 603.127 2529.53 603.979 2532.66 603.979C2536.44 603.979 2540.37 603.174 2544.44 601.565ZM2677.44 611.647C2676.49 612.215 2675.26 612.688 2673.75 613.067C2672.23 613.445 2670.72 613.635 2669.2 613.635C2667.03 613.635 2665.28 613.256 2663.95 612.499C2662.72 611.836 2661.63 610.653 2660.68 608.949L2646.48 582.537C2644.4 578.655 2641.99 575.957 2639.24 574.443C2636.5 572.928 2632.66 572.171 2627.74 572.171H2618.79V612.499H2604.74V513.099H2637.4C2649.32 513.099 2658.6 515.702 2665.23 520.909C2671.86 526.115 2675.17 533.357 2675.17 542.635C2675.17 549.356 2673.13 555.178 2669.06 560.101C2664.99 564.929 2659.5 568.289 2652.59 570.183C2655.34 572.739 2657.56 575.626 2659.26 578.845L2677.44 611.647ZM2636.54 561.237C2644.4 561.237 2650.37 559.675 2654.44 556.551C2658.6 553.332 2660.68 548.693 2660.68 542.635C2660.68 530.233 2652.78 524.033 2636.97 524.033H2618.79V561.237H2636.54ZM2761.76 568.053C2761.76 569.946 2761.62 572.407 2761.34 575.437H2706.81C2707.19 584.43 2709.27 591.435 2713.06 596.453C2716.84 601.375 2722.05 603.837 2728.68 603.837C2733.13 603.837 2736.82 602.937 2739.75 601.139C2742.78 599.34 2745.72 596.216 2748.56 591.767C2749.31 590.725 2750.35 590.205 2751.68 590.205C2753.86 590.205 2756.7 591.483 2760.2 594.039C2757.74 600.287 2753.76 605.162 2748.27 608.665C2742.78 612.167 2736.25 613.919 2728.68 613.919C2721.39 613.919 2715.04 612.309 2709.65 609.091C2704.35 605.777 2700.28 601.091 2697.44 595.033C2694.6 588.879 2693.18 581.637 2693.18 573.307C2693.18 560.716 2696.35 550.871 2702.69 543.771C2709.13 536.576 2717.98 532.979 2729.24 532.979C2739.56 532.979 2747.56 536.055 2753.24 542.209C2758.92 548.362 2761.76 556.977 2761.76 568.053ZM2747.99 566.349C2747.99 550.729 2741.6 542.919 2728.82 542.919C2722.48 542.919 2717.46 544.907 2713.77 548.883C2710.07 552.859 2707.85 558.681 2707.09 566.349H2747.99ZM2805.55 613.919C2800.63 613.919 2795.9 613.209 2791.35 611.789C2786.81 610.369 2783.12 608.523 2780.28 606.251C2777.53 603.884 2776.16 601.328 2776.16 598.583C2776.16 596.879 2776.73 595.411 2777.86 594.181C2779.09 592.855 2780.66 592.051 2782.55 591.767C2785.48 596.027 2788.8 599.151 2792.49 601.139C2796.18 603.127 2800.72 604.121 2806.12 604.121C2811.52 604.121 2815.59 602.937 2818.33 600.571C2821.08 598.109 2822.45 594.891 2822.45 590.915C2822.45 588.359 2821.6 586.276 2819.89 584.667C2818.29 582.963 2816.2 581.637 2813.65 580.691C2811.19 579.649 2807.82 578.561 2803.56 577.425C2797.98 575.91 2793.48 574.443 2790.07 573.023C2786.76 571.508 2783.87 569.331 2781.41 566.491C2779.05 563.556 2777.86 559.722 2777.86 554.989C2777.86 550.255 2779.19 546.232 2781.84 542.919C2784.49 539.605 2787.9 537.144 2792.06 535.535C2796.23 533.831 2800.58 532.979 2805.13 532.979C2811.47 532.979 2817.1 534.257 2822.02 536.813C2827.04 539.274 2830.92 542.729 2833.67 547.179C2832.53 548.788 2831.3 550.066 2829.98 551.013C2828.65 551.959 2827.42 552.433 2826.28 552.433C2824.86 552.433 2823.59 551.77 2822.45 550.445C2817.91 545.143 2812.08 542.493 2804.98 542.493C2800.63 542.493 2797.17 543.487 2794.62 545.475C2792.06 547.463 2790.78 550.492 2790.78 554.563C2790.78 557.119 2791.59 559.201 2793.2 560.811C2794.81 562.325 2796.84 563.556 2799.3 564.503C2801.77 565.355 2805.08 566.301 2809.24 567.343C2814.92 568.857 2819.47 570.325 2822.88 571.745C2826.28 573.165 2829.22 575.389 2831.68 578.419C2834.14 581.448 2835.37 585.471 2835.37 590.489C2835.37 597.778 2832.67 603.505 2827.28 607.671C2821.98 611.836 2814.74 613.919 2805.55 613.919ZM2919.61 595.459C2919.61 601.612 2920.32 606.819 2921.74 611.079C2919.08 612.499 2916.15 613.209 2912.93 613.209C2910.66 613.209 2909 612.451 2907.96 610.937C2907.01 609.422 2906.45 606.629 2906.26 602.559C2903.51 606.061 2899.87 608.854 2895.32 610.937C2890.87 612.925 2886 613.919 2880.7 613.919C2872.56 613.919 2866.4 611.741 2862.24 607.387C2858.17 602.937 2856.13 596.358 2856.13 587.649V534.399H2869.62V586.655C2869.62 592.903 2870.71 597.447 2872.89 600.287C2875.16 603.032 2878.8 604.405 2883.82 604.405C2888.27 604.405 2892.44 603.269 2896.32 600.997C2900.2 598.63 2903.46 595.317 2906.12 591.057V534.399H2919.61V595.459ZM2948.03 500.177H2961.38V612.499H2948.03V500.177ZM3027.35 601.565C3028.11 601.943 3028.72 602.606 3029.2 603.553C3029.67 604.405 3029.91 605.399 3029.91 606.535C3029.91 608.428 3029.2 609.801 3027.78 610.653C3026.36 611.694 3024.37 612.499 3021.81 613.067C3019.35 613.635 3016.65 613.919 3013.72 613.919C3007.38 613.919 3002.31 612.215 2998.52 608.807C2994.74 605.304 2992.84 600.665 2992.84 594.891V543.913H2979.07V534.399H2992.84V513.099H3006.33V534.399H3024.94V543.913H3006.33V593.045C3006.33 596.831 3007.09 599.624 3008.61 601.423C3010.12 603.127 3012.44 603.979 3015.56 603.979C3019.35 603.979 3023.28 603.174 3027.35 601.565ZM3070.35 613.919C3065.42 613.919 3060.69 613.209 3056.15 611.789C3051.6 610.369 3047.91 608.523 3045.07 606.251C3042.32 603.884 3040.95 601.328 3040.95 598.583C3040.95 596.879 3041.52 595.411 3042.66 594.181C3043.89 592.855 3045.45 592.051 3047.34 591.767C3050.28 596.027 3053.59 599.151 3057.28 601.139C3060.97 603.127 3065.52 604.121 3070.91 604.121C3076.31 604.121 3080.38 602.937 3083.13 600.571C3085.87 598.109 3087.24 594.891 3087.24 590.915C3087.24 588.359 3086.39 586.276 3084.69 584.667C3083.08 582.963 3081 581.637 3078.44 580.691C3075.98 579.649 3072.62 578.561 3068.36 577.425C3062.77 575.91 3058.28 574.443 3054.87 573.023C3051.55 571.508 3048.67 569.331 3046.21 566.491C3043.84 563.556 3042.66 559.722 3042.66 554.989C3042.66 550.255 3043.98 546.232 3046.63 542.919C3049.28 539.605 3052.69 537.144 3056.86 535.535C3061.02 533.831 3065.38 532.979 3069.92 532.979C3076.26 532.979 3081.9 534.257 3086.82 536.813C3091.84 539.274 3095.72 542.729 3098.46 547.179C3097.33 548.788 3096.1 550.066 3094.77 551.013C3093.44 551.959 3092.21 552.433 3091.08 552.433C3089.66 552.433 3088.38 551.77 3087.24 550.445C3082.7 545.143 3076.88 542.493 3069.78 542.493C3065.42 542.493 3061.97 543.487 3059.41 545.475C3056.86 547.463 3055.58 550.492 3055.58 554.563C3055.58 557.119 3056.38 559.201 3057.99 560.811C3059.6 562.325 3061.64 563.556 3064.1 564.503C3066.56 565.355 3069.87 566.301 3074.04 567.343C3079.72 568.857 3084.26 570.325 3087.67 571.745C3091.08 573.165 3094.01 575.389 3096.47 578.419C3098.94 581.448 3100.17 585.471 3100.17 590.489C3100.17 597.778 3097.47 603.505 3092.07 607.671C3086.77 611.836 3079.53 613.919 3070.35 613.919Z" fill="#3296FA"/>
<defs>
<filter id="filter0_f_1019_8976" x="14.2" y="14.2" width="808.024" height="737.6" filterUnits="userSpaceOnUse" color-interpolation-filters="sRGB">
<feFlood flood-opacity="0" result="BackgroundImageFix"/>
<feBlend mode="normal" in="SourceGraphic" in2="BackgroundImageFix" result="shape"/>
<feGaussianBlur stdDeviation="42.9" result="effect1_foregroundBlur_1019_8976"/>
</filter>
<filter id="filter1_f_1019_8976" x="217.493" y="190.479" width="438.549" height="438.549" filterUnits="userSpaceOnUse" color-interpolation-filters="sRGB">
<feFlood flood-opacity="0" result="BackgroundImageFix"/>
<feBlend mode="normal" in="SourceGraphic" in2="BackgroundImageFix" result="shape"/>
<feGaussianBlur stdDeviation="5.6" result="effect1_foregroundBlur_1019_8976"/>
</filter>
<filter id="filter2_f_1019_8976" x="224.693" y="197.679" width="424.149" height="424.149" filterUnits="userSpaceOnUse" color-interpolation-filters="sRGB">
<feFlood flood-opacity="0" result="BackgroundImageFix"/>
<feBlend mode="normal" in="SourceGraphic" in2="BackgroundImageFix" result="shape"/>
<feGaussianBlur stdDeviation="2" result="effect1_foregroundBlur_1019_8976"/>
</filter>
<filter id="filter3_f_1019_8976" x="215.944" y="188.929" width="430.233" height="430.234" filterUnits="userSpaceOnUse" color-interpolation-filters="sRGB">
<feFlood flood-opacity="0" result="BackgroundImageFix"/>
<feBlend mode="normal" in="SourceGraphic" in2="BackgroundImageFix" result="shape"/>
<feGaussianBlur stdDeviation="1" result="effect1_foregroundBlur_1019_8976"/>
</filter>
<radialGradient id="paint0_radial_1019_8976" cx="0" cy="0" r="1" gradientUnits="userSpaceOnUse" gradientTransform="translate(431.061 404.046) rotate(90) scale(268.115 295.614)">
<stop stop-color="#07EAD3"/>
<stop offset="1" stop-color="#004D9C"/>
</radialGradient>
<linearGradient id="paint1_linear_1019_8976" x1="436.768" y1="204.679" x2="436.768" y2="614.828" gradientUnits="userSpaceOnUse">
<stop stop-color="#007CF9"/>
<stop offset="1" stop-color="#004993"/>
</linearGradient>
<linearGradient id="paint2_linear_1019_8976" x1="436.768" y1="204.679" x2="436.768" y2="614.828" gradientUnits="userSpaceOnUse">
<stop stop-color="#007CF9"/>
<stop offset="1" stop-color="#004993"/>
</linearGradient>
</defs>
</svg>
